<?xml version="1.0" encoding="UTF-8"?>
<svg width="1200pt" height="1200pt" version="1.1" viewBox="0 0 1200 1200" xmlns="http://www.w3.org/2000/svg">
 <path d="m1114.3 868.92c-10.582-24.918-23.059-48.988-37.32-72-13.695-22.16-25.73-45.305-36-69.242-14.879-41.281-28.68-138.36-24-156 1.9219-1.1992 5.2812-3 8.0391-4.4414 24.602-12 75.84-38.641 90.48-126.48 9-53.52-24-81.84-39.359-95.398 14.879-14.641 35.16-44.762 30-97.922v0.003906c-2.9844-26.359-18.242-49.762-41.16-63.121-6.2734-3.8203-11.738-8.8359-16.078-14.762-0.96094-1.9219-1.8008-4.6797-2.8789-7.5586h-0.003907c-1.9141-7.7695-5.5195-15.023-10.559-21.238-11.012-7.9336-24.363-11.945-37.922-11.402-46.426 2.0078-89.254 25.574-115.8 63.719-23.305-10.934-48.559-17.098-74.281-18.117-14.074 1.625-27.945 4.6797-41.402 9.1172-9.7188-23.039-41.762-68.16-144-70.68h-2.5195c-40.441 0-79.441 25.922-89.398 60-3.7891 12.043-3.9961 24.926-0.60156 37.082-0.42188 8.6914-1.832 17.305-4.1992 25.68-20.996-4.9961-42.984-3.8711-63.359 3.2383-17.039 7.1992-34.801 26.762-51.84 45.602-9.5039 11.535-20.156 22.07-31.801 31.441-3.0547 1.9023-6.2227 3.625-9.4805 5.1602-6.3906 3.0195-12.461 6.6758-18.117 10.918-30.723 26.16-48.961 75.48-62.16 111.48-3.6016 9.7188-6.9609 18.602-10.078 25.922h-0.003907c-25.996 55.148-56.246 108.19-90.48 158.64-10.293-8.9961-24.07-12.914-37.559-10.68-38.281 2.043-87.48 126.12-92.039 163.08 0.023438 10.562 1.8945 21.039 5.5195 30.961 0 1.6797 1.0781 3.6016 1.5586 5.3984-2.6797 2.0078-4.8203 4.6445-6.2383 7.6797-12 28.441-0.83984 90.961-0.71875 91.559h-0.003906c5.9453 24.871 18.363 47.727 36 66.242 20.281 16.801 73.199 22.922 96 15 7.9922-3.8164 14.977-9.4453 20.402-16.441 3.0039-3.5547 6.3828-6.7734 10.078-9.5977 9.2695-1.9141 18.754-2.6016 28.199-2.043 1.4453 2.25 2.7656 4.5742 3.9609 6.9609 2.918 7.3789 8.25 13.555 15.121 17.52 4.5312 1.6367 9.418 2.0508 14.16 1.1992h2.7617l3.2383 4.8008c2.4648 4.293 5.6758 8.1133 9.4805 11.281 5.2109 3.4414 10.809 6.2617 16.68 8.3984 4.5781 1.6367 8.9648 3.7695 13.078 6.3594 5.6953 5.1406 11.105 10.59 16.203 16.32 20.52 22.199 48 51.84 93.719 51.84 6.1602-0.074219 12.301-0.67578 18.359-1.7969 16.922-2.6406 36.719-16.68 55.922-30.359v-0.003907c9.4609-7.2617 19.539-13.688 30.117-19.199 9.9102-3.6523 20.164-6.3086 30.602-7.918 2.9922-0.30469 6.0078-0.30469 9 0 1.0781 0 4.0781 2.7617 6 4.0781 20.879 19.68 30.48 16.801 33.719 16.801 5.4727-1.2305 10.301-4.4336 13.562-9 5.8008 2.7812 12.555 2.7812 18.359 0 5.6797-3.1875 9.7383-8.6406 11.16-15l2.0391 0.71875c12.73 5.8633 26.449 9.2812 40.441 10.082 4.2461 0.039063 8.4297-1.0547 12.121-3.1602 3.6875-2.1094 6.7539-5.1602 8.8789-8.8398 1.3438-2.8086 2.043-5.8867 2.0391-9 12.215-0.28516 24.328-2.2656 36-5.8789 3.6602-1.7695 7.0859-3.9883 10.199-6.6016 1.4414-1.1992 3.6016-2.8789 5.0391-3.8398 8.7344 2.1367 17.348 4.7383 25.801 7.8008l3.7188 2.2812v-0.003906c6.1367 5.0781 13.879 7.8008 21.84 7.6797 9.0664-2.5898 17.109-7.9102 23.043-15.238 2.7617-2.9883 5.8633-5.6445 9.2383-7.9219 10.559-3 45.121 3.9609 54.48 6.9609l0.83984 1.1992c2.6094 4.7617 6.8828 8.3906 12 10.203 5.8984 1.0195 11.965 0.22656 17.398-2.2812l3.7188-1.3203h0.003906c11.512 0.13672 23.008 0.89844 34.438 2.2812 39.961 3.8398 85.199 8.1602 104.04-14.641h0.003907c10.016-10.859 17.805-23.578 22.918-37.441 10-31.352 9.918-65.055-0.23828-96.359zm-22.32 88.078c-4.1289 11.074-10.457 21.195-18.602 29.762-9.7109 7.0078-21.699 10.133-33.598 8.7578-4.5195 0.23828-9.043 0.23828-13.562 0-12 0-25.199-1.5586-36-2.6406l-19.441-1.8008c-5.3984 0-10.32-0.71875-14.879 0h-3.2383c-3.75 0.33984-7.4297 1.2305-10.918 2.6406l-1.9219 0.71875v0.003906c-1.4141-2.2461-3.1523-4.2656-5.1602-6-1.2031-1.1875-2.6328-2.1289-4.1992-2.7617-2.0859-1.1211-4.25-2.082-6.4805-2.8789-11.309-3.0781-22.816-5.3633-34.441-6.8398-6.0469-0.75781-12.141-1.1172-18.238-1.082-12.465-0.49609-24.352 5.2695-31.68 15.359-2.7266 2.8125-5.6562 5.418-8.7617 7.8008-1.6797-0.83984-4.3203-2.5195-6-3.6016l-5.7617-3.3594h0.003906c-1.75-0.84375-3.5547-1.5625-5.4023-2.1562-4.8594-1.9336-9.8281-3.5742-14.879-4.9219-4.9219-1.4414-9.4805-2.6406-12-3.2383l-2.7617-0.71875h-4.6797v-0.003907c-6.293 1.6328-12.098 4.7617-16.918 9.1211-1.6406 1.3477-3.3633 2.5898-5.1602 3.7188-10.406 2.3594-21.016 3.7266-31.68 4.082-13.559 0.96094-18.121 1.3203-21.359 7.6797l-3.1211 6 3.4805 5.7617 0.96094 1.8008-1.2031-0.003906c-10.277-1.75-20.312-4.7305-29.879-8.8789-17.879-6.3594-24-8.5195-30.359-3l-5.2812 5.7617 1.5586 6.9609 0.003906-0.003907c0.35938 1.3789 0.59766 2.7812 0.71875 4.1992l-7.0781-2.8789c-4.8008-2.0391-13.559-5.7617-19.32 2.3984l-3.2383 5.1602-0.003907 0.003906c-3.082-2.25-6.043-4.6523-8.8789-7.2031-3.9844-3.4648-8.4766-6.2969-13.32-8.3984-6.7383-1.7344-13.746-2.1406-20.641-1.1992-12.523 1.9883-24.824 5.2031-36.719 9.5977-12.09 6.2266-23.613 13.496-34.441 21.723-16.078 12-34.32 24-45.84 26.281-44.281 6.9609-68.762-19.559-90.48-42.961-5.7031-6.2969-11.793-12.23-18.238-17.762-5.7891-4.4023-12.172-7.957-18.961-10.559-4.1289-1.4531-8.1406-3.2148-12-5.2812-1.3867-1.7227-2.668-3.5234-3.8398-5.3984-2.918-5.3086-7.0273-9.8672-12-13.32-3.1055-1.6211-6.5781-2.4062-10.082-2.2812h-5.8789-2.3984c-1.0781-1.6797-2.6406-4.5586-3.6016-6.3594-3.0352-8.1953-9.2109-14.848-17.16-18.48-15.309-2.3789-30.949-1.3984-45.84 2.8789-6.9648 3.8633-13.121 9.0391-18.121 15.242-3.0938 3.7422-6.6406 7.0859-10.559 9.957-17.52 6-60.719 0-73.32-10.68-13.066-14.789-22.336-32.539-27-51.719-3.9609-21.719-6.9609-60-1.3203-76.559l0.83984-0.71875v-0.003906c4.3125-2.7188 7.375-7.0312 8.5195-12 0.14062-5.8711-0.92188-11.711-3.1172-17.16-2.3438-6.9297-3.9531-14.09-4.8008-21.359 5.6406-45.719 53.762-138.36 69.602-142.32 18-1.0781 20.039 3.9609 21.719 8.3984v0.003906c1.8594 5.0586 6.6094 8.4805 12 8.6406 27 0 114-177.6 114.72-180 3.2383-7.5586 6.7188-16.801 10.441-26.879 12-33.48 29.398-79.32 55.199-101.52v-0.003907c4.25-2.8711 8.7031-5.4375 13.32-7.6797 4.1094-1.9922 8.1133-4.1953 12-6.6016 13.266-10.391 25.34-22.223 36-35.277 14.641-16.078 31.32-34.559 43.441-39.602 16.113-5.2227 33.371-5.8047 49.797-1.6797 4.5859 1.332 9.457 1.332 14.043 0 11.039-4.5586 17.398-21.602 18.602-50.641v-2.7617l-0.96094-2.3984h-0.003907c-2.5391-7.7969-2.5391-16.199 0-24 7.0781-24 37.559-43.559 68.16-42.48 112.8 2.8789 124.08 60.961 124.44 63.359l2.1602 13.922 13.441-4.3203c15.035-5.1445 30.496-8.957 46.199-11.398 25.148 1.6797 49.672 8.5859 72 20.277l10.68 5.5195 5.6406-10.68c21.621-36.051 59.883-58.852 101.88-60.719 6.8203-0.10156 13.566 1.418 19.68 4.4414 2.0898 3.8008 3.7422 7.8242 4.9219 12 1.1289 3.6602 2.5312 7.2305 4.1992 10.68 6.082 9.75 14.492 17.832 24.48 23.52 14.281 10.559 29.16 21.48 31.559 46.078 4.8008 50.281-15.961 74.039-28.922 84h0.003907c-3.457 2.543-5.5781 6.5156-5.7617 10.801 0 8.0391 5.5195 13.078 12.961 19.441 14.281 12 38.16 33 31.441 73.441-12.719 75.719-54.961 97.32-77.762 108.96v-0.003906c-5.25 2.3555-10.172 5.3789-14.641 9-20.16 18.719 10.441 156 19.32 180.84 10.738 25.145 23.332 49.449 37.68 72.723 13.574 21.688 25.602 44.301 36 67.68 8.1914 26.051 8.1914 53.988 0 80.039z"/>
 <path d="m352.2 1039.9c-2.0352-0.027344-3.9219-1.0625-5.0391-2.7617-0.60156-0.83984-55.922-88.441-75.719-111.96-34.68-41.281-65.879-95.16-35.281-182.88 9.7188-27.719 51.238-56.281 84.602-79.199 10.441-7.1992 20.281-14.039 27.238-19.559 30.602-24 89.039-63.719 124.8-73.559v-0.003906c23.832-7.1562 49.246-7.1562 73.078 0 1.4961 0.53906 2.707 1.6602 3.3633 3.1055 0.65625 1.4453 0.69922 3.0977 0.11719 4.5742-1.1797 3.0664-4.5664 4.6562-7.6797 3.6016-21.426-6.293-44.211-6.293-65.641 0-33.84 9.3594-91.922 48.719-120 71.398-7.3203 5.8789-17.281 12.719-27.961 20.039-30.121 20.879-72 49.32-79.922 73.32-28.68 81.719-1.0781 130.56 33 171.24 20.281 24 74.398 109.56 76.801 113.16l0.003907 0.003906c1.6914 2.8242 0.84375 6.4844-1.9219 8.2773-1.0625 0.90625-2.4492 1.3359-3.8398 1.2031z"/>
 <path d="m714.36 1016.4c-1.5273-0.007813-2.9883-0.60938-4.0781-1.6797-0.71875 0-65.398-62.641-91.922-72.84-18.938-5.2227-38.441-8.125-58.078-8.6406-23.562-0.39453-46.922-4.4453-69.242-12-16.559-7.9219-40.078-37.922-42.719-41.281-12-15-34.559-59.039-22.801-79.199 11.762-20.156 74.281-20.758 87.121-20.758 3.3125 0 6 2.6875 6 6s-2.6875 6-6 6c-28.199 0-70.68 4.6797-76.801 15.121-7.3203 12 9.8398 50.281 21.961 65.879 10.504 14.703 23.5 27.453 38.398 37.68 21.016 6.8281 42.945 10.43 65.039 10.68 20.797 0.57812 41.438 3.7656 61.441 9.4805 28.68 11.039 93.121 72.719 96 75.359 1.1367 1.1289 1.7734 2.6602 1.7734 4.2617 0 1.5977-0.63672 3.1328-1.7734 4.2578-1.1484 1.1289-2.7109 1.7383-4.3203 1.6797z"/>
 <path d="m651.96 1022c-2.6406-0.074218-4.9492-1.8047-5.7617-4.3203 0 0-9.2383-31.199-29.52-42-14.641-7.8008-47.281-21-48-21.121v0.003906c-1.6172-0.49609-2.9531-1.6484-3.6758-3.1758-0.72266-1.5312-0.76562-3.293-0.12109-4.8555 0.64453-1.5625 1.9219-2.7812 3.5117-3.3555 1.5938-0.57422 3.3516-0.44922 4.8438 0.34375 1.3203 0 33.48 13.441 48.719 21.48 24.84 13.199 35.039 48 36 49.32h0.003907c0.44531 1.5273 0.26562 3.1719-0.5 4.5664-0.76563 1.3945-2.0547 2.4297-3.582 2.875z"/>
 <path d="m624.84 1036.4c-1.5898-0.0625-3.0938-0.75781-4.1719-1.9258-1.082-1.1719-1.6523-2.7227-1.5898-4.3164 0.019531-1.8516 0.91016-3.582 2.4023-4.6797-2.7383-7.2656-7.3594-13.672-13.391-18.566-6.0312-4.8906-13.254-8.0898-20.93-9.2734-12.824-0.89844-25.695-0.89844-38.52 0-1.625 0.25-3.2773-0.23438-4.5078-1.3242-1.2266-1.0898-1.9062-2.6719-1.8516-4.3164-0.097656-1.5781 0.44531-3.1328 1.5039-4.3047 1.0625-1.1758 2.5547-1.8711 4.1367-1.9336 13.738-1.0391 27.539-1.0391 41.277 0 29.16 5.1602 45.602 30.719 44.398 42.359h0.003906c-0.0625 2.2617-1.0234 4.4023-2.6641 5.957-1.6445 1.5508-3.8359 2.3867-6.0977 2.3242z"/>
 <path d="m492 482.52c-3.3125 0.73047-6.5898-1.3672-7.3203-4.6797-0.73047-3.3125 1.3672-6.5898 4.6797-7.3203 78.758-38.027 162.2-65.465 248.16-81.598 44.039-7.1992 75.719-12 101.28-15 30.602-4.0781 52.68-7.0781 76.441-12.602h-0.003907c5.6094-1.7148 11.066-3.8828 16.32-6.4805 10.004-5.5742 21.102-8.8906 32.52-9.7188 10.027 2.7266 19.246 7.832 26.883 14.879 3.7695 3.043 7.7852 5.7695 12 8.1602 6.5742 2.4141 13.43 3.9883 20.398 4.6797 10.344 0.74219 20.41 3.6875 29.52 8.6406 22.523 16.641 41.02 38.133 54.121 62.879 0.82422 1.4492 1.0078 3.1719 0.50781 4.7617-0.49609 1.5898-1.6328 2.9023-3.1367 3.6211-1.5039 0.71484-3.2383 0.77734-4.7852 0.16797-1.5508-0.61328-2.7773-1.8398-3.3867-3.3906-12.41-22.906-29.648-42.844-50.52-58.441-7.5469-3.5586-15.68-5.7148-24-6.3594-8.25-0.74609-16.34-2.7266-24-5.8789-4.793-2.4961-9.3672-5.3828-13.68-8.6406-6.0625-5.2656-13.062-9.3398-20.641-12-9.3281 1.0859-18.344 4.0234-26.52 8.6406-5.9336 2.9492-12.117 5.3594-18.48 7.1992-24 5.6406-46.68 8.6406-77.52 12.84-25.441 3.4805-57.238 7.6797-101.04 15-84.762 15.906-167.04 42.984-244.68 80.52-1.0195 0.27344-2.0859 0.3125-3.1211 0.12109z"/>
 <path d="m400.8 482.52c-0.87891 0.027344-1.75-0.17969-2.5195-0.59766-13.332-5.5352-25.535-13.465-36-23.402-11.449-19.656-13.688-43.348-6.1211-64.801 11.363-28.711 24.344-56.754 38.879-84 0.60938-1.6016 1.875-2.8672 3.4805-3.4766 1.6016-0.60938 3.3906-0.50391 4.9102 0.29297 1.5195 0.79297 2.625 2.1992 3.0391 3.8633 0.41797 1.6641 0.10156 3.4258-0.86719 4.8398-14.059 26.645-26.715 54-37.922 81.961-6.5156 18.035-4.8516 38.012 4.5586 54.723 9.1445 7.9453 19.469 14.426 30.602 19.199 2.9648 1.4062 4.2461 4.9375 2.8789 7.918-0.85156 1.9961-2.7539 3.3398-4.918 3.4805z"/>
 <path d="m428.16 502.8c-3.2227 0-5.8711-2.543-6-5.7617 0-2.5195-2.5195-62.641 0-92.52 5.0117-37.461 22.316-72.195 49.199-98.758 1.1367-1.2148 2.7266-1.9023 4.3867-1.9023 1.6641 0.003906 3.25 0.69531 4.3867 1.9102 1.1328 1.2188 1.7109 2.8477 1.5938 4.5078-0.11719 1.6602-0.91406 3.1953-2.207 4.2422-24.574 24.656-40.488 56.613-45.359 91.082-2.5195 29.16 0 90.359 0 90.961v-0.003906c0.066406 1.5938-0.50781 3.1445-1.5859 4.3164-1.082 1.168-2.582 1.8633-4.1758 1.9258z"/>
 <path d="m1074.2 335.16c-1.6211-0.003906-3.1719-0.65234-4.3164-1.8008-13.883-14.176-26.379-29.648-37.32-46.199-9.3828-25.117-12.234-52.203-8.2812-78.719 4.3398-9.7422 10.082-18.801 17.039-26.883 2.0977-2.5352 5.8438-2.9102 8.4023-0.83984 1.2539 1.0117 2.0469 2.4844 2.207 4.0859 0.15625 1.6016-0.33594 3.1992-1.3672 4.4336-5.8438 6.6758-10.766 14.102-14.641 22.082-3.1289 23.824-0.36719 48.051 8.0391 70.559 10.316 15.457 22.047 29.918 35.039 43.199 1.1367 1.1289 1.7773 2.6602 1.7773 4.2617 0 1.6016-0.64062 3.1328-1.7773 4.2617-1.3164 1.1602-3.0508 1.7227-4.8008 1.5586z"/>
 <path d="m1014.1 320.4c-1.7383-0.015626-3.3906-0.75391-4.5625-2.0391l-22.32-25.559-42.48-44.641h0.003907c-1.2422-1.1172-1.9609-2.6992-1.9883-4.3672-0.027344-1.668 0.64062-3.2734 1.8477-4.4258 1.2031-1.1562 2.8359-1.7539 4.5-1.6602 1.668 0.097657 3.2188 0.88672 4.2773 2.1719l42.602 44.762 22.559 25.801c2.3047 2.3711 2.3047 6.1445 0 8.5195-1.2227 1.0586-2.8242 1.5781-4.4375 1.4375z"/>
 <path d="m714.36 312c-1.8594 0.019531-3.6094-0.87891-4.6797-2.3984-2.0156-2.6211-1.5312-6.375 1.082-8.4023 13.441-10.199 21.48-36 24-45 0.31641-1.5586 1.2422-2.9297 2.5703-3.8047 1.3281-0.87891 2.9492-1.1914 4.5078-0.875 3.2266 0.77344 5.2812 3.9375 4.6797 7.1992 0 1.4414-8.1602 36.961-27.84 52.078v0.003906c-1.2305 0.94141-2.7773 1.3711-4.3203 1.1992z"/>
 <path d="m780 541.2c-2.6016 0.003906-4.8984-1.707-5.6406-4.1992-0.95703-3.1406 0.73828-6.4805 3.8398-7.5586 2.2812 0 54.602-16.801 73.559-16.199l0.003907-0.003907c18.305 3.5234 36.172 9.0352 53.277 16.441 2.7305 1.4492 3.9141 4.7344 2.7344 7.5898-1.1797 2.8594-4.3359 4.3516-7.293 3.4492-15.586-6.8086-31.832-11.996-48.48-15.48-23.621 2.7227-46.875 7.9922-69.359 15.723z"/>
 <path d="m606.96 328.56c-14.102 0.085937-27.781-4.8008-38.641-13.797-20.254-17.855-31.473-43.82-30.602-70.801-0.64453-23.586 8.2266-46.438 24.613-63.414 16.387-16.973 38.914-26.641 62.508-26.828 28.777-0.26562 56.215 12.156 75 33.961 10.984 12.547 15.426 29.523 12 45.84-5.168 22.18-16.203 42.559-31.953 59.004-15.75 16.449-35.633 28.355-57.566 34.477-5.0469 1.082-10.199 1.6055-15.359 1.5586zm17.879-162.84c-20.402 0.21875-39.855 8.6328-53.988 23.348-14.129 14.719-21.746 34.5-21.133 54.895-0.66406 23.34 8.9414 45.801 26.281 61.438 12.133 9.918 28.219 13.562 43.441 9.8398 19.676-5.5547 37.508-16.273 51.645-31.043 14.137-14.77 24.062-33.055 28.754-52.957 2.7422-12.785-0.67969-26.113-9.2383-36-16.516-19.027-40.566-29.824-65.762-29.52z"/>
 <path d="m668.64 222.36c-11.281-14.52-41.281-34.199-60.84-31.199-18.594 2.4102-35.379 12.344-46.441 27.48-5.7188 7.6602-8.0195 17.344-6.3594 26.758 3.7188 16.199 36.719 24 51.238 24h3.2383c18.48-2.2812 58.32-19.199 63.48-31.32h0.003907c0.79687-2.7617 0.81641-5.6914 0.054687-8.4688-0.76172-2.7734-2.2773-5.2812-4.375-7.25z"/>
 <path d="m1095 286.8s-2.2812-1.8008-5.3984-4.5586l-13.68-66.242 3.2383-4.5586c1.8828-2.6602 1.2969-6.3359-1.3203-8.2812-1.2773-0.97656-2.8945-1.3867-4.4805-1.1367-1.5898 0.25-3.0039 1.1367-3.918 2.457-7.1992 9.8398-24 34.199-19.32 45.602v-0.003906c8.5898 18.254 21.578 34.09 37.801 46.082 1.0234 0.80469 2.2969 1.2266 3.5977 1.1992 1.8828-0.019531 3.6562-0.90234 4.8008-2.3984 1.8008-2.6367 1.2227-6.2266-1.3203-8.1602z"/>
 <path d="m957.12 796.56c-1.5469-0.31641-3.1523 0.003906-4.4609 0.88281s-2.2109 2.25-2.5 3.7969c0 0-9.2383 46.559-13.32 61.441-2.7617 10.199-11.281 36-15.48 48-1.4414 4.3203-2.3984 7.1992-2.5195 7.3203-0.60938 1.6797-0.38672 3.5508 0.60156 5.0391l10.922-1.3203c0-1.1992 2.0391-6.1211 4.3203-12.719 4.5586-13.441 11.281-33.719 13.801-42.961 4.0781-15.238 13.078-60 13.441-62.281l-0.003906 0.003907c0.38672-1.5977 0.089844-3.2852-0.82422-4.6562-0.91016-1.3672-2.3516-2.2891-3.9766-2.5469z"/>
 <path d="m1009.3 874.32c-9.9219 13.84-21.715 26.234-35.039 36.84-13.98 5.8086-28.816 9.293-43.922 10.32l-10.922 1.3203h-0.96094 0.003907c-13.5 1-26.875 3.25-39.961 6.7188-24.648 10.281-47.684 24.066-68.398 40.922-4.1094 4.2188-7.8789 8.75-11.281 13.559l-8.6406 12c-1.1055 1.6367-2.9453 2.625-4.918 2.6406-1.207 0.007813-2.3867-0.37109-3.3594-1.082-1.3242-0.875-2.2344-2.25-2.5273-3.8086-0.29688-1.5586 0.054688-3.1719 0.96484-4.4688 0-0.96094 2.8789-4.4414 6-8.6406 4.7188-6.918 10.02-13.422 15.84-19.441 21.742-17.898 46.004-32.492 72-43.32 13.926-3.8477 28.195-6.3398 42.602-7.4375h4.1992l5.7617-0.71875h0.83984l6.7188-0.83984v-0.003906c11.664-0.99219 23.113-3.7461 33.961-8.1602 11.828-9.7461 22.281-21.047 31.078-33.598 2.0234-2.6523 5.8086-3.1641 8.4609-1.1406 2.6523 2.0195 3.1602 5.8086 1.1406 8.4609z"/>
 <path d="m1039.2 1013.6c-2.207 0.03125-4.2422-1.1719-5.2773-3.1211-4.4961-8.0742-8.5-16.41-12-24.961-3.75-16.328-6.4336-32.883-8.043-49.559-9.1484 5.0703-17.613 11.277-25.199 18.48-6.5039 6.5938-10.965 14.93-12.84 24-0.84375 3.7383-2.1328 7.3672-3.8398 10.801-4.3906 6.4102-9.3711 12.398-14.879 17.879-2.3359 2.1016-5.8984 2.043-8.1641-0.12891-2.2695-2.1758-2.4766-5.7266-0.47656-8.1523 4.7188-4.6914 9.0156-9.793 12.84-15.238 1.2812-2.6367 2.25-5.418 2.8789-8.2812 2.4844-10.832 7.9258-20.758 15.723-28.68 10.816-10.008 22.922-18.523 36-25.32 1.7695-0.89844 3.8672-0.89844 5.6367 0 1.7695 0.92969 2.9453 2.6914 3.1211 4.6797 1.6406 18.949 4.4062 37.781 8.2812 56.402 3.2656 7.832 7.0312 15.449 11.277 22.797 1.5312 2.9258 0.46875 6.5312-2.3984 8.1602-0.85156 0.26562-1.7539 0.34766-2.6406 0.24219z"/>
 <path d="m1058.3 1012c-1.043 0.003906-2.0742-0.24219-3-0.72266-2.8516-1.7109-3.8125-5.3906-2.1602-8.2773 4.5664-7.8789 7.4258-16.629 8.3984-25.68 0.19141-9.8477-0.81641-19.68-3-29.281-0.44141-1.5117-0.25781-3.1367 0.50781-4.5156 0.76562-1.375 2.0547-2.3867 3.5742-2.8047 1.5273-0.44531 3.168-0.26563 4.5625 0.5 1.3945 0.76562 2.4297 2.0508 2.875 3.582 2.5469 10.645 3.7148 21.574 3.4805 32.52-0.96875 11.176-4.4102 21.996-10.078 31.68-1.0664 1.8438-3.0312 2.9844-5.1602 3z"/>
 <path d="m961.08 929.28s-13.918 22.797-17.879 30.719c-0.046875 0.51953-0.046875 1.043 0 1.5586-0.48047 0.89844-0.80469 1.875-0.96094 2.8828-0.035156 0.51953-0.035156 1.0391 0 1.5586 0 1.1992 0 2.1602-0.71875 3-2.6406 7.5586-9.1211 28.801-9.1211 28.922l-12-3.6016s5.8789-19.32 8.7617-27.961v-1.3203c0.10156-0.55469 0.10156-1.125 0-1.6797 0.58594-3.0273 1.5547-5.9727 2.8789-8.7578 4.1992-8.1602 17.762-30.359 18.359-31.32 0.75391-1.5039 2.1016-2.6211 3.7148-3.082 1.6133-0.46094 3.3477-0.22656 4.7812 0.65234 1.4336 0.875 2.4336 2.3125 2.7578 3.9609 0.32422 1.6445-0.058594 3.3555-1.0508 4.707z"/>
 <path d="m942.6 961.44c-0.48047 0.89844-0.80859 1.8711-0.96094 2.8789-1.2617 1.9727-3.5703 3.0078-5.8789 2.6406-2.1602 0-4.5586 0-7.0781-0.71875l-0.003906-0.003907c-9.8398-1.6641-19.938-0.88281-29.398 2.2812-16.199 12-30.121 23.281-30.238 24h-0.003907c-1.1133 0.92578-2.5117 1.4336-3.9609 1.4414-2.5-0.027344-4.7227-1.5977-5.5781-3.9492-0.85547-2.3516-0.16016-4.9844 1.7383-6.6133 0-0.60156 14.398-12 31.078-24 9.1211-6.4805 29.879-5.2812 40.078-4.1992h5.0469c3.0469 0.48438 5.2578 3.1562 5.1602 6.2422z"/>
 <path d="m809.88 1006.4c-2.3438-0.085937-4.4297-1.5039-5.3789-3.6484-0.94531-2.1484-0.57812-4.6445 0.94141-6.4336 10.867-12.074 22.406-23.535 34.559-34.32 21.848-13.297 44.445-25.316 67.68-36 3.0508-1.293 6.582 0.023438 8.0391 3 0.68359 1.4453 0.75 3.1055 0.18359 4.5977-0.56641 1.4961-1.7148 2.6953-3.1836 3.3242-22.566 10.418-44.523 22.117-65.758 35.039-11.5 10.242-22.398 21.141-32.641 32.641-1.168 1.1914-2.7734 1.8438-4.4414 1.8008z"/>
 <path d="m125.64 710.76c-0.91016 0.17969-1.8477 0.17969-2.7617 0-1.625-0.69141-2.8789-2.0469-3.4297-3.7266-0.55078-1.6797-0.35156-3.5156 0.55078-5.0352 8.3281-14.77 19.551-27.711 33-38.039l32.762-24 7.0781 9.6016-32.641 24v-0.003906c-11.957 9.4141-21.914 21.125-29.277 34.441-1.1484 1.7891-3.1562 2.8398-5.2812 2.7617z"/>
 <path d="m245.28 742.8c-2.1094 0.011719-4.0664-1.082-5.1602-2.8789-8.3242-15.77-12.457-33.414-12-51.242 2.9219-47.73 8.8945-95.23 17.879-142.2 0.71875-3.2227 3.8203-5.3242 7.0781-4.8008 3.2578 0.66406 5.3906 3.8086 4.8008 7.082-8.9531 46.285-14.926 93.105-17.879 140.16-0.25 15.629 3.4648 31.07 10.801 44.879 0.82812 1.3477 1.082 2.9727 0.69531 4.5078-0.38281 1.5352-1.3711 2.8516-2.7344 3.6523-1.043 0.64062-2.2617 0.9375-3.4805 0.83984z"/>
 <path d="m157.68 869.52c-19.242-1.1797-37.941-6.8516-54.602-16.559-11.77-7.582-21.891-17.461-29.758-29.039-0.82812-1.418-1.0586-3.1055-0.64062-4.6914 0.41406-1.5859 1.4453-2.9414 2.8594-3.7695 2.9492-1.7227 6.7383-0.73047 8.4609 2.2188 7.0547 10.004 15.93 18.594 26.16 25.32 15.758 9.1523 33.617 14.074 51.84 14.281 13.617-5.0898 26.52-11.906 38.398-20.281 2.7305-1.4648 6.1289-0.60938 7.8398 1.9727 1.7109 2.582 1.1758 6.043-1.2383 7.9883-13.316 9.3438-27.852 16.812-43.199 22.199-2.0273 0.26953-4.0742 0.39062-6.1211 0.35938z"/>
 <path d="m263.28 911.16c-0.67578 0.125-1.3672 0.125-2.043 0-1.9219-0.71875-45.602-16.68-60-22.922-10.441-4.3203-39.84-18.719-41.16-19.32v0.003906c-2.9805-1.4609-4.2148-5.0586-2.7578-8.043 1.457-2.9805 5.0586-4.2188 8.0391-2.7578 0 0 30.48 14.762 40.559 19.078 14.398 6.1211 59.281 22.559 60 22.68h0.003906c3.3125 0.5625 5.543 3.707 4.9766 7.0195-0.5625 3.3164-3.7031 5.543-7.0195 4.9805z"/>
 <path d="m135.12 975.36c-4.6406 0.25-9.2461-0.92188-13.199-3.3594-12-9.7188-22.68-49.199-24.602-57-0.75-3.2109 1.2305-6.4297 4.4414-7.1992 1.543-0.39453 3.1836-0.14453 4.5391 0.69141 1.3594 0.83594 2.3164 2.1914 2.6602 3.7461 4.4414 17.641 13.559 45 20.281 50.16h-0.003907c5.0469 1.5352 10.434 1.5352 15.48 0 8.5195-6.5898 14.156-16.223 15.723-26.879 1.1992-9.9609-8.8789-41.039-15.602-58.32-0.71484-1.5078-0.77344-3.2422-0.15625-4.793 0.61719-1.5508 1.8555-2.7734 3.4102-3.375 1.5547-0.60547 3.293-0.53125 4.793 0.19922s2.6289 2.0547 3.1133 3.6484c1.9219 4.8008 18.359 48 16.32 64.078v0.003907c-2.1211 14.641-10.309 27.707-22.559 36-4.6719 1.7656-9.6523 2.582-14.641 2.3984z"/>
 <path d="m253.56 964.44c-2.2148-0.046875-4.2344-1.2852-5.2773-3.2422-5.1016-11.02-12.273-20.961-21.121-29.277-18.598-6.4219-38.055-10.023-57.719-10.684-3.3359-0.12891-5.9492-2.9023-5.8828-6.2383 0.25391-3.2578 2.9727-5.7695 6.2422-5.7617 21.262 0.70312 42.277 4.7539 62.277 12 10.199 4.6797 23.16 27.719 26.879 34.68l0.003907 0.003906c1.5078 2.9531 0.39062 6.5703-2.5195 8.1562-0.92188 0.34375-1.9062 0.46484-2.8828 0.36328z"/>
 <path d="m699.96 955.08c-2.2539 0.015625-4.3203-1.2344-5.3594-3.2344-1.0352-2-0.86719-4.4102 0.4375-6.2422 0 0 30.719-43.559 39.84-58.32 15.566-27.477 28.965-56.125 40.082-85.68 0.41797-1.6562 1.5234-3.0586 3.0352-3.8477 1.5156-0.79297 3.2969-0.90234 4.8945-0.30078s2.8672 1.8594 3.4805 3.4531c0.61719 1.5898 0.52734 3.3711-0.25 4.8945-11.246 30.316-24.973 59.656-41.043 87.719-9.3594 15.121-38.879 57.238-40.199 59.039-1.1562 1.5625-2.9766 2.4922-4.918 2.5195z"/>
</svg>
